<svg xmlns="http://www.w3.org/2000/svg" width="60" height="60" viewBox="0 0 60 60"><path id="Path_5466" fill="#f1f7ff" d="M48.75,60H11.25A11.249,11.249,0,0,1,0,48.75V11.25A11.249,11.249,0,0,1,11.25,0h37.5A11.249,11.249,0,0,1,60,11.25v37.5A11.249,11.249,0,0,1,48.75,60Z" data-name="Path 5466"/><path id="Path_5467" fill="#87bcff" d="M15.5,20.833v1.875a.938.938,0,0,0,1.875,0V20.833Z" data-name="Path 5467" transform="translate(13.563 18.229)"/><path id="Path_5468" fill="#2f89fc" d="M34.166,12.53H9.791a4.026,4.026,0,0,1-.624-.064V24.717a2.191,2.191,0,0,0,2.188,2.188H32.6a2.191,2.191,0,0,0,2.188-2.188V12.466A4.074,4.074,0,0,1,34.166,12.53Zm-4.659,3.919-4.774,5.8a1.25,1.25,0,0,1-1.646.255l-2.741-1.779-4.057,3.947a1.25,1.25,0,0,1-1.744-1.793l4.774-4.642a1.246,1.246,0,0,1,1.553-.152L23.513,19.8l4.063-4.941a1.25,1.25,0,0,1,1.931,1.588Z" data-name="Path 5468" transform="translate(8.021 10.908)"/><g id="Group_2264" data-name="Group 2264" transform="translate(15 16.562)"><path id="Path_5469" fill="#87bcff" d="M35.188,14.458H10.813a2.813,2.813,0,1,1,0-5.625H35.188a2.813,2.813,0,1,1,0,5.625Z" data-name="Path 5469" transform="translate(-8 -8.833)"/><path id="Path_5470" fill="#87bcff" d="M17.166,26.5a2.5,2.5,0,1,1,2.5-2.5A2.5,2.5,0,0,1,17.166,26.5Z" data-name="Path 5470" transform="translate(-2.166 2.251)"/></g></svg>