<svg xmlns="http://www.w3.org/2000/svg" width="60" height="60" viewBox="0 0 60 60"><path id="Path_5450" fill="#f1f7ff" d="M48.75,60H11.25A11.249,11.249,0,0,1,0,48.75V11.25A11.249,11.249,0,0,1,11.25,0h37.5A11.249,11.249,0,0,1,60,11.25v37.5A11.249,11.249,0,0,1,48.75,60Z" data-name="Path 5450"/><circle id="Ellipse_352" cx="5.001" cy="5.001" r="5.001" fill="#87bcff" data-name="Ellipse 352" transform="translate(33.741 30)"/><path id="Path_5451" fill="#87bcff" d="M26.954,23.62l-1.577-2.685a6.21,6.21,0,0,1-4.552,2c-.12,0-.231-.028-.349-.036l1.95,3.324a.936.936,0,0,0,.808.461h.03a.938.938,0,0,0,.806-.516l.617-1.224,1.4.088a.874.874,0,0,0,.857-.444.935.935,0,0,0,.009-.966Z" data-name="Path 5451" transform="translate(17.917 18.318)"/><path id="Path_5452" fill="#87bcff" d="M23.575,22.926a6.211,6.211,0,0,1-4.541-1.984l-1.571,2.672a.937.937,0,0,0,.866,1.41l1.4-.088.611,1.222a.936.936,0,0,0,.806.517h.032a.941.941,0,0,0,.808-.461l1.959-3.326c-.122.007-.24.037-.368.037Z" data-name="Path 5452" transform="translate(15.166 18.324)"/><g id="Group_2262" data-name="Group 2262" transform="translate(15 15)"><path id="Path_5453" fill="#2f89fc" d="M18.967,18.667H11.417a1.251,1.251,0,0,1,0-2.5h7.551a1.251,1.251,0,0,1,0,2.5Z" data-name="Path 5453" transform="translate(-6.105 -0.855)"/><path id="Path_5454" fill="#2f89fc" d="M17.717,21.334h-6.3a1.251,1.251,0,0,1,0-2.5h6.3a1.251,1.251,0,0,1,0,2.5Z" data-name="Path 5454" transform="translate(-6.105 1.479)"/><path id="Path_5455" fill="#2f89fc" d="M22.5,38H11.75A3.754,3.754,0,0,1,8,34.25V11.75A3.754,3.754,0,0,1,11.75,8h17.5A3.754,3.754,0,0,1,33,11.75v8.9a1.25,1.25,0,1,1-2.5,0v-8.9A1.252,1.252,0,0,0,29.249,10.5H11.75A1.252,1.252,0,0,0,10.5,11.75v22.5A1.252,1.252,0,0,0,11.75,35.5H22.5a1.25,1.25,0,1,1,0,2.5Z" data-name="Path 5455" transform="translate(-8 -8)"/><path id="Path_5456" fill="#2f89fc" d="M17.4,14.688a.938.938,0,0,0,0-1.875H15.208v-.624a.314.314,0,0,1,.313-.313H17.4A.938.938,0,0,0,17.4,10H15.521a2.191,2.191,0,0,0-2.188,2.188v3.126A2.191,2.191,0,0,0,15.521,17.5H17.4a.938.938,0,0,0,0-1.877H15.521a.314.314,0,0,1-.313-.313v-.624Z" data-name="Path 5456" transform="translate(-3.334 -6.25)"/><path id="Path_5457" fill="#2f89fc" d="M19.479,17.5h-.624a2.191,2.191,0,0,1-2.188-2.188V12.187A2.191,2.191,0,0,1,18.855,10h.624a2.191,2.191,0,0,1,2.188,2.188v3.126A2.192,2.192,0,0,1,19.479,17.5Zm-.626-5.625a.314.314,0,0,0-.313.313v3.126a.314.314,0,0,0,.313.313h.624a.314.314,0,0,0,.313-.313V12.189a.314.314,0,0,0-.313-.313Z" data-name="Path 5457" transform="translate(-0.416 -6.251)"/><path id="Path_5458" fill="#2f89fc" d="M12.76,17.5H10.938a.938.938,0,0,1,0-1.875H12.76a.484.484,0,0,0,0-.937h-.521a2.346,2.346,0,0,1,0-4.687h1.823a.938.938,0,0,1,0,1.875H12.239a.484.484,0,0,0,0,.938h.521a2.346,2.346,0,0,1,0,4.688Z" data-name="Path 5458" transform="translate(-6.25 -6.25)"/></g></svg>